<?xml version="1.0" standalone="no"?>
<!DOCTYPE svg PUBLIC "-//W3C//DTD SVG 20010904//EN"
 "http://www.w3.org/TR/2001/REC-SVG-20010904/DTD/svg10.dtd">
<svg version="1.0" xmlns="http://www.w3.org/2000/svg"
 width="380.000000pt" height="380.000000pt" viewBox="0 0 380.000000 380.000000"
 preserveAspectRatio="xMidYMid meet">
<metadata>
Created by potrace 1.11, written by Peter Selinger 2001-2013
</metadata>
<g transform="translate(0.000000,380.000000) scale(0.100000,-0.100000)"
fill="#000000" stroke="none">
<path d="M1705 3789 c-234 -30 -415 -84 -618 -185 -375 -186 -665 -482 -852
-869 -54 -111 -115 -273 -129 -341 -3 -10 -12 -49 -20 -85 -40 -167 -56 -453
-36 -609 5 -36 12 -90 16 -120 9 -78 68 -287 110 -394 116 -293 309 -559 549
-758 87 -72 83 -69 170 -126 137 -91 471 -242 508 -229 5 1 -35 18 -90 36
-283 95 -551 275 -751 504 l-50 58 30 31 c39 40 142 180 253 343 48 72 91 133
94 138 4 4 38 -4 77 -17 179 -63 342 -73 634 -40 30 3 75 10 100 14 39 7 46 6
60 -13 133 -182 230 -384 255 -531 4 -25 -1 -68 -15 -126 -21 -83 -22 -89 -5
-123 20 -43 69 -68 90 -46 23 24 92 261 184 634 83 334 88 347 131 359 78 21
407 132 585 198 172 64 564 226 635 263 25 13 29 13 34 0 3 -8 4 -21 1 -27 -2
-7 -6 -45 -10 -83 -10 -120 -40 -254 -91 -405 -36 -105 -141 -330 -169 -360
-8 -9 -15 -20 -15 -23 0 -11 -65 -103 -129 -182 -281 -351 -688 -583 -1132
-645 -179 -26 -432 -15 -607 25 -79 19 -104 18 -37 -1 60 -17 147 -32 235 -42
127 -13 448 -6 501 12 8 3 32 8 54 11 83 12 250 62 365 110 248 103 483 272
665 476 73 82 90 103 151 194 171 251 284 550 321 855 10 82 10 363 0 455 -11
94 -53 280 -87 385 -157 475 -515 886 -957 1100 -131 64 -308 127 -407 146
-28 5 -65 12 -96 19 -65 13 -118 17 -275 19 -93 2 -197 0 -230 -5z m405 -98
c586 -80 1088 -448 1355 -996 120 -245 178 -470 191 -745 l6 -116 -91 -43
c-244 -113 -545 -230 -826 -321 -134 -43 -365 -110 -365 -106 0 1 12 37 26 81
95 298 271 964 335 1270 7 33 14 65 15 70 70 317 84 469 50 559 -37 96 -135
131 -238 84 -140 -65 -369 -284 -653 -627 -11 -13 -25 -29 -30 -35 -68 -75
-489 -630 -684 -902 l-114 -159 -53 3 c-106 7 -269 -32 -340 -80 -46 -31 -76
-102 -68 -159 9 -63 35 -108 93 -162 28 -26 51 -51 51 -55 -1 -4 -22 -37 -48
-74 -62 -88 -153 -181 -300 -310 l-32 -28 -27 43 c-77 121 -173 356 -218 531
-43 168 -62 459 -42 646 81 766 635 1417 1358 1594 121 29 148 34 249 42 41 4
76 8 78 9 7 6 247 -4 322 -14z m557 -326 c47 -33 43 -94 -33 -433 -25 -111
-47 -211 -49 -222 -11 -57 -233 -935 -279 -1105 -30 -110 -59 -219 -65 -242
l-11 -41 -148 -36 c-81 -19 -168 -38 -193 -41 l-46 -6 -66 78 c-142 170 -295
280 -467 338 -30 11 -59 22 -64 26 -12 10 321 490 585 845 122 163 346 453
358 464 3 3 21 23 40 45 91 107 210 230 266 275 90 71 130 84 172 55z m-1728
-1873 c-45 -66 -92 -133 -104 -148 l-22 -28 -34 22 c-49 30 -98 84 -108 118
-26 91 72 146 270 153 l81 2 -83 -119z m431 -2 c39 -23 98 -64 133 -93 76 -63
179 -168 172 -176 -12 -11 -166 -23 -326 -25 -127 -2 -297 19 -371 46 l-37 13
82 116 c45 64 97 137 114 163 l33 46 65 -25 c36 -13 96 -42 135 -65z m838
-262 c-3 -7 -31 -109 -64 -225 -32 -117 -62 -213 -65 -213 -3 0 -13 24 -22 54
-18 57 -112 250 -146 302 l-21 31 93 17 c50 9 115 23 142 30 65 18 88 19 83 4z"/>
</g>
</svg>
